<svg viewBox="26 50 200 154.4290008544922" fill="none" xmlns="http://www.w3.org/2000/svg">
<path d="M210.969 107.599C210.99 106.973 211 106.345 211 105.714C211 74.9441 186.152 50 155.5 50C131.185 50 110.522 65.6968 103.018 87.5468C97.6283 84.7236 91.4999 83.1274 85 83.1274C63.4609 83.1274 46 100.656 46 122.278C46 143.9 63.4609 161.429 85 161.429L155.5 161.429C155.525 161.429 155.55 161.429 155.575 161.429H197.5C213.24 161.429 226 148.619 226 132.818C226 121.908 219.916 112.424 210.969 107.599Z" fill="#303030" fill-opacity="0.7"></path>
<path d="M190.969 150.599C190.99 149.973 191 149.345 191 148.714C191 117.944 166.152 93 135.5 93C111.185 93 90.5218 108.697 83.0176 130.547C77.6283 127.724 71.4999 126.127 65 126.127C43.4609 126.127 26 143.656 26 165.278C26 186.9 43.4609 204.429 65 204.429L135.5 204.429C135.525 204.429 135.55 204.429 135.575 204.429H177.5C193.24 204.429 206 191.619 206 175.818C206 164.908 199.916 155.424 190.969 150.599Z" fill="#EBEBF0"></path>
</svg>
