<svg width="240" height="240" viewBox="39.75 39.999996185302734 160.0006866455078 160" fill="none" xmlns="http://www.w3.org/2000/svg">
<path d="M181.381 174.958C183.864 172.398 181.465 168.334 177.907 168.609C175.749 168.776 173.568 168.861 171.366 168.861C125.154 168.861 87.6917 131.428 87.6917 85.252C87.6917 71.0498 91.2356 57.6746 97.488 45.9612C99.1698 42.8104 96.398 38.9833 93.0558 40.248C61.9024 52.036 39.75 82.1641 39.75 117.47C39.75 163.05 76.6703 200 122.214 200C145.424 200 166.395 190.403 181.381 174.958Z" fill="#303030" fill-opacity="0.7"></path>
<path fill-rule="evenodd" clip-rule="evenodd" d="M147.438 64.7664C147.038 64.1954 146.52 63.3505 144.955 61.1586C144.987 61.1912 137.46 51.5207 137.46 51.5207C136.533 50.3308 136.768 50.1324 137.973 51.0698C137.973 51.0698 147.575 58.538 147.575 58.538C149.728 60.0761 150.595 60.6165 151.174 61.022C151.745 60.6217 152.59 60.1037 154.782 58.538C154.749 58.5706 164.419 51.0431 164.419 51.0431C165.609 50.1169 165.808 50.3513 164.87 51...190.178 115.461C190.194 115.476 186.685 110.968 186.685 110.968C186.25 110.409 186.357 110.314 186.919 110.751C186.919 110.751 191.402 114.237 191.402 114.237C192.407 114.955 192.811 115.208 193.082 115.397C193.348 115.21 193.742 114.968 194.766 114.237C194.75 114.253 199.258 110.744 199.258 110.744C199.817 110.309 199.913 110.416 199.475 110.979C199.475 110.979 195.989 115.461 195.989 115.461C195.271 116.466 195.019 116.871 194.829 117.141C195.016 117.407 195.258 117.802 195.989 118.825C195.974 118.81 199.483 123.317 199.483 123.317C199.918 123.876 199.811 123.972 199.248 123.534C199.248 123.534 194.766 120.048 194.766 120.048C193.76 119.33 193.356 119.078 193.086 118.888C192.819 119.075 192.425 119.317 191.402 120.048C191.417 120.033 186.909 123.542 186.909 123.542C186.35 123.977 186.255 123.87 186.692 123.307C186.692 123.307 190.178 118.825 190.178 118.825C190.896 117.82 191.149 117.415 191.338 117.145C191.151 116.878 190.909 116.484 190.178 115.461Z" fill="#EBEBF0"></path>
</svg>

