<svg viewBox="23 21 193 198.4290008544922" fill="none" xmlns="http://www.w3.org/2000/svg">
<path d="M207.148 57.1838C207.161 56.7908 207.167 56.3962 207.167 56C207.167 36.67 192.534 21 174.483 21C160.164 21 147.996 30.8608 143.577 44.5871C140.403 42.8135 136.794 41.8108 132.967 41.8108C120.283 41.8108 110 52.8222 110 66.4054C110 79.9886 120.283 91 132.967 91L174.483 91C174.498 91 174.513 91 174.527 91H199.217C208.486 91 216 82.9532 216 73.027C216 66.1731 212.417 60.2153 207.148 57.1838Z" fill="#EBEBF0"></path>
<path d="M75.2402 100.609C75.2467 100.407 75.25 100.204 75.25 100C75.25 90.0589 67.3814 82 57.675 82C49.9752 82 43.4319 87.0713 41.0556 94.1305C39.349 93.2184 37.4083 92.7027 35.35 92.7027C28.5293 92.7027 23 98.3657 23 105.351C23 112.337 28.5293 118 35.35 118L57.675 118C57.6829 118 57.6908 118 57.6987 118H70.975C75.9594 118 80 113.862 80 108.757C80 105.232 78.0736 102.168 75.2402 100.609Z" fill="#EBEBF0"></path>
<path d="M200.969 165.599C200.99 164.973 201 164.345 201 163.714C201 132.944 176.152 108 145.5 108C121.185 108 100.522 123.697 93.0176 145.547C87.6283 142.724 81.4999 141.127 75 141.127C53.4609 141.127 36 158.656 36 180.278C36 201.9 53.4609 219.429 75 219.429L145.5 219.429C145.525 219.429 145.55 219.429 145.575 219.429H187.5C203.24 219.429 216 206.619 216 190.818C216 179.908 209.916 170.424 200.969 165.599Z" fill="#EBEBF0"></path>
</svg>