<svg viewBox="30 40 180 178.70294189453125" fill="none" xmlns="http://www.w3.org/2000/svg">
<path fill-rule="evenodd" clip-rule="evenodd" d="M195 95.7143C195 96.3449 194.99 96.9731 194.969 97.5987C203.917 102.424 210 111.908 210 122.818C210 138.619 197.24 151.429 181.5 151.429H162.54C161.935 149.737 160.749 148.244 159.069 147.276L157.43 146.333C157.666 143.404 156.238 140.464 153.517 138.897C150.779 137.321 147.484 137.573 145.053 139.272L138.262 135.5C138.262 135.5 143.76 131.675 145.121 130.776C147.544 132.434 150.803 132.666 153.517 131.103C156.267 129.519 157.697 126.528 157.42 123.566C159.019 122.628 159.069 122.724 159.069 122.724C162.827 120.56 164.116 115.753 161.944 112C159.772 108.249 154.958 106.954 151.194 109.121C151.194 109.121 151.018 109.257 149.49 110.019C147.072 108.392 143.839 108.174 141.143 109.727C138.415 111.298 136.986 114.255 137.234 117.194C135.833 118.03 129.875 121.647 129.875 121.647C129.875 121.647 129.891 113.943 129.958 112.886...16.362 157.281 118.357 155.729 119.25L151.003 121.969L151.546 122.906C152.45 124.466 151.912 126.461 150.352 127.359C148.788 128.259 146.789 127.726 145.884 126.164L145.341 125.226Z" fill="#719CEF"></path>
<path fill-rule="evenodd" clip-rule="evenodd" d="M101.57 163.499C98.9438 162.646 96.1231 164.083 95.2697 166.71L88.3169 188.108C87.4635 190.735 88.9008 193.555 91.5271 194.409C94.1533 195.262 96.9741 193.825 97.8274 191.199L104.78 169.8C105.634 167.174 104.196 164.353 101.57 163.499ZM135.534 166.71C136.387 164.083 139.208 162.646 141.834 163.499C144.461 164.353 145.898 167.174 145.045 169.8L134.615 201.898C133.762 204.524 130.941 205.962 128.315 205.108C125.689 204.255 124.251 201.434 125.105 198.808L135.534 166.71ZM109.868 183.741C110.721 181.115 113.542 179.678 116.168 180.531C118.795 181.384 120.232 184.205 119.378 186.831L110.146 215.247C109.292 217.873 106.472 219.31 103.845 218.457C101.219 217.604 99.7819 214.783 100.635 212.157L109.868 183.741Z" fill="#B4F5F2"></path>
</svg>

