<svg viewBox="30 40 180 151.0709991455078" fill="none" xmlns="http://www.w3.org/2000/svg">
<path fill-rule="evenodd" clip-rule="evenodd" d="M195 95.7143C195 96.3449 194.99 96.9731 194.969 97.5987C203.917 102.424 210 111.908 210 122.818C210 138.619 197.24 151.429 181.5 151.429H139.575L139.5 151.429H138.365C139.124 150.901 143.87 147.602 145.121 146.776C147.544 148.434 150.803 148.666 153.517 147.103C156.267 145.519 157.697 142.528 157.42 139.566C159.019 138.628 159.069 138.724 159.069 138.724C162.827 136.56 164.116 131.753 161.944 128C159.772 124.249 154.958 122.954 151.194 125.121C151.194 125.121 151.018 125.257 149.49 126.019C147.072 124.392 143.839 124.174 141.143 125.727C138.415 127.298 136.986 130.255 137.234 133.194C135.833 134.03 129.875 137.647 129.875 137.647C129.875 137.647 129.891 129.943 129.958 128.886C132.574 127.609 134.374 124.93 134.374 121.829C134.374 118.692 132.526 115.982 129.857 114.725C129.896 113.348 129.875 112.845 129.875 112.845C129.8...129.295 101.277 130.193C102.841 131.093 103.377 133.084 102.472 134.646L101.929 135.584Z" fill="#719CEF"></path>
<path fill-rule="evenodd" clip-rule="evenodd" d="M145.341 141.226L101.929 166.202L102.472 167.139C103.375 168.699 102.837 170.695 101.277 171.593C99.7133 172.492 97.7143 171.959 96.8093 170.397L96.2662 169.46L91.5405 172.179C89.9807 173.076 87.9826 172.537 87.0817 170.982C86.1789 169.424 86.7188 167.429 88.2712 166.536L92.997 163.817L92.454 162.88C91.5502 161.32 92.0883 159.325 93.6487 158.427C95.2124 157.527 97.2114 158.06 98.1164 159.622L98.6595 160.56L142.072 135.584L141.529 134.646C140.625 133.087 141.163 131.091 142.723 130.193C144.287 129.294 146.286 129.827 147.191 131.389L147.734 132.326L152.46 129.607C154.02 128.71 156.018 129.249 156.919 130.804C157.821 132.362 157.281 134.357 155.729 135.25L151.003 137.969L151.546 138.906C152.45 140.466 151.912 142.461 150.352 143.359C148.788 144.259 146.789 143.726 145.884 142.164L145.341 141.226Z" fill="#719CEF"></path>
</svg>

